<svg xmlns="http://www.w3.org/2000/svg" xmlns:xlink="http://www.w3.org/1999/xlink" width="250" zoomAndPan="magnify" viewBox="0 0 187.5 187.499992" height="250" preserveAspectRatio="xMidYMid meet" version="1.0"><path fill="#2d2424" d="M 120.691406 82.558594 C 124.09375 82.558594 126.851562 85.316406 126.851562 88.71875 C 126.851562 92.121094 124.09375 94.878906 120.691406 94.878906 C 117.289062 94.878906 114.53125 92.121094 114.53125 88.71875 C 114.53125 85.316406 117.304688 82.558594 120.691406 82.558594 M 31.628906 156.121094 C 38.324219 100.632812 62.425781 58.625 103.15625 33.582031 C 106.261719 42.253906 108.003906 50.726562 108.390625 59.03125 C 125.167969 65.285156 134.15625 74.625 135.378906 87.035156 C 135.542969 88.8125 136.46875 90.273438 137.984375 91.214844 C 141.628906 93.453125 144.902344 95.878906 147.824219 98.503906 C 149.324219 99.855469 149.988281 101.703125 149.675781 103.703125 C 149.121094 107.269531 148.304688 110.472656 147.253906 113.300781 L 164.378906 114.910156 C 164.785156 114.949219 165.101562 115.316406 165.046875 115.722656 C 165.007812 116.132812 164.640625 116.445312 164.230469 116.390625 L 146.660156 114.726562 C 146.253906 115.6875 145.808594 116.613281 145.328125 117.480469 L 157.664062 122.363281 C 158.054688 122.511719 158.238281 122.957031 158.089844 123.34375 C 157.941406 123.734375 157.5 123.917969 157.109375 123.769531 L 144.570312 118.8125 C 144.035156 119.664062 143.480469 120.460938 142.886719 121.199219 L 157.074219 131.78125 C 157.40625 132.019531 157.480469 132.5 157.222656 132.832031 C 156.980469 133.167969 156.5 133.242188 156.167969 132.980469 L 141.886719 122.328125 C 139.242188 125.15625 135.96875 127.007812 132.066406 127.804688 C 88.488281 136.679688 98.347656 184.644531 126.40625 176.484375 C 164.175781 161.261719 187 120.886719 178.734375 79.488281 C 169.390625 32.710938 123.910156 2.359375 77.132812 11.699219 C 30.351562 21.039062 0 66.523438 9.339844 113.300781 C 12.6875 130.023438 20.640625 144.652344 31.628906 156.121094 Z M 31.628906 156.121094 " fill-opacity="1" fill-rule="evenodd"/></svg>